<svg viewBox="0 0 102.21638663902982 102.21638663902982" xmlns="http://www.w3.org/2000/svg">
    <path d="M 76.04,51.48 C 78.70,54.98 78.86,57.52 76.01,60.30 C 73.16,63.09 67.78,59.82 64.63,62.62 C 61.47,65.42 65.40,68.08 63.39,71.49 C 61.38,74.89 60.19,77.18 56.58,76.23 C 52.98,75.28 52.15,70.22 48.97,67.69 C 45.80,65.16 45.99,67.53 43.90,66.11 C 41.81,64.69 43.94,63.01 40.63,62.01 C 37.32,61.01 34.18,63.76 30.66,62.12 C 27.13,60.48 25.13,58.70 26.52,55.45 C 27.90,52.20 35.83,53.14 36.19,49.13 C 36.56,45.11 28.89,43.63 27.96,39.38 C 27.04,35.13 28.77,33.35 32.50,32.12 C 36.22,30.90 38.70,33.21 42.86,34.48 C 47.02,35.75 45.92,38.26 49.13,37.18 C 52.35,36.11 52.01,31.83 55.71,30.20 C 59.41,28.56 60.33,29.18 63.93,30.65 C 67.53,32.12 69.76,32.16 70.11,36.08 C 70.47,39.99 63.86,42.47 65.34,46.32 C 66.83,50.18 73.37,47.99 76.04,51.48 Z" stroke="black" stroke-width="0.5" fill="skyblue"/>
    </svg>